<svg>
  <symbol id="telegram" xmlns="http://www.w3.org/2000/svg" width="32px" height="32px" viewBox="0 0 32 32" version="1.1">
    <path style=" stroke:none;fill-rule:nonzero;fill:currentColor;fill-opacity:1;" d="M 16 0 C 7.164062 0 0 7.164062 0 16 C 0 24.835938 7.164062 32 16 32 C 24.835938 32 32 24.835938 32 16 C 32 7.164062 24.835938 0 16 0 Z M 24.507812 9.40625 L 18.039062 26.398438 C 17.957031 26.660156 17.753906 26.863281 17.488281 26.949219 C 17.226562 27.03125 16.941406 26.980469 16.722656 26.8125 L 13.613281 22.460938 L 12.292969 23.722656 C 12.117188 23.953125 11.839844 24.089844 11.546875 24.085938 L 11.816406 20.324219 L 11.980469 20.179688 L 11.976562 20.175781 L 20.773438 11.6875 C 21.011719 11.472656 20.773438 11.234375 20.511719 11.425781 L 10.488281 19.425781 L 6.1875 16.277344 C 6.019531 16.058594 5.96875 15.773438 6.050781 15.511719 C 6.132812 15.246094 6.339844 15.042969 6.601562 14.960938 L 23.601562 8.5 C 23.859375 8.375 24.171875 8.425781 24.375 8.632812 C 24.578125 8.835938 24.632812 9.144531 24.507812 9.40625 Z M 24.507812 9.40625 "/>
  </symbol>

  <symbol id="vk" xmlns="http://www.w3.org/2000/svg" width="32px" height="32px" viewBox="0 0 32 32" version="1.1">
    <path style=" stroke:none;fill-rule:nonzero;fill:currentColor;fill-opacity:1;" d="M 16 0 C 7.164062 0 0 7.164062 0 16 C 0 24.835938 7.164062 32 16 32 C 24.835938 32 32 24.835938 32 16 C 32 7.164062 24.835938 0 16 0 Z M 24.523438 21.429688 L 22.492188 21.429688 C 22.046875 21.433594 21.625 21.230469 21.347656 20.882812 C 20.738281 20.117188 19.539062 18.761719 18.28125 18.179688 C 18.132812 18.109375 17.957031 18.121094 17.820312 18.207031 C 17.679688 18.296875 17.597656 18.449219 17.597656 18.613281 L 17.597656 20.621094 C 17.597656 21.066406 17.234375 21.429688 16.785156 21.429688 L 15.847656 21.429688 C 14.625 21.429688 11.996094 20.6875 9.902344 17.636719 C 8.117188 15.035156 7.320312 13.019531 6.859375 11.386719 C 6.804688 11.195312 6.84375 10.984375 6.964844 10.824219 C 7.085938 10.664062 7.277344 10.570312 7.476562 10.570312 L 9.53125 10.570312 C 9.953125 10.570312 10.324219 10.84375 10.445312 11.25 C 10.828125 12.527344 11.816406 15.28125 13.5625 16.652344 C 13.671875 16.738281 13.820312 16.753906 13.945312 16.695312 C 14.070312 16.632812 14.148438 16.507812 14.148438 16.371094 L 14.148438 13.152344 C 14.148438 12.515625 13.875 11.882812 13.445312 11.382812 C 13.316406 11.238281 13.289062 11.03125 13.367188 10.855469 C 13.449219 10.679688 13.625 10.570312 13.816406 10.570312 L 16.984375 10.570312 C 17.324219 10.570312 17.597656 10.84375 17.597656 11.183594 L 17.597656 15.515625 C 17.597656 15.644531 17.667969 15.761719 17.78125 15.820312 C 17.894531 15.878906 18.035156 15.871094 18.136719 15.796875 C 18.71875 15.382812 19.214844 14.769531 19.675781 14.082031 C 20.25 13.21875 20.953125 11.789062 21.304688 11.046875 C 21.445312 10.753906 21.742188 10.570312 22.066406 10.570312 L 24.304688 10.570312 C 24.496094 10.570312 24.671875 10.667969 24.773438 10.828125 C 24.875 10.992188 24.882812 11.191406 24.796875 11.363281 C 24.234375 12.496094 23.132812 14.574219 22.097656 15.796875 C 21.789062 16.160156 21.832031 16.707031 22.199219 17.019531 C 22.871094 17.59375 23.925781 18.660156 25.0625 20.4375 C 25.191406 20.636719 25.199219 20.886719 25.089844 21.09375 C 24.976562 21.300781 24.757812 21.429688 24.523438 21.429688 Z M 24.523438 21.429688 "/>
  </symbol>

  <symbol id="whatsapp" xmlns="http://www.w3.org/2000/svg" width="32px" height="32px" viewBox="0 0 32 32" version="1.1">
    <path style=" stroke:none;fill-rule:evenodd;fill:currentColor;fill-opacity:1;" d="M 16 32 C 24.835938 32 32 24.835938 32 16 C 32 7.164062 24.835938 0 16 0 C 7.164062 0 0 7.164062 0 16 C 0 24.835938 7.164062 32 16 32 Z M 16 32 "/>
    <path style=" stroke:none;fill-rule:evenodd;fill:#333333;fill-opacity:1;" d="M 16.039062 24.652344 C 14.511719 24.652344 13.078125 24.261719 11.832031 23.578125 L 7.015625 25.109375 L 8.585938 20.476562 C 7.792969 19.175781 7.335938 17.648438 7.335938 16.019531 C 7.335938 11.25 11.234375 7.382812 16.039062 7.382812 C 20.84375 7.382812 24.738281 11.25 24.738281 16.019531 C 24.738281 20.785156 20.84375 24.652344 16.039062 24.652344 Z M 16.039062 8.757812 C 12.003906 8.757812 8.722656 12.015625 8.722656 16.019531 C 8.722656 17.605469 9.242188 19.078125 10.117188 20.273438 L 9.203125 22.96875 L 12.011719 22.074219 C 13.167969 22.835938 14.550781 23.277344 16.039062 23.277344 C 20.070312 23.277344 23.351562 20.019531 23.351562 16.019531 C 23.351562 12.015625 20.070312 8.757812 16.039062 8.757812 Z M 20.429688 18.007812 C 20.378906 17.917969 20.234375 17.863281 20.023438 17.757812 C 19.808594 17.652344 18.761719 17.140625 18.566406 17.070312 C 18.371094 17 18.226562 16.964844 18.085938 17.175781 C 17.941406 17.390625 17.535156 17.863281 17.410156 18.007812 C 17.285156 18.148438 17.160156 18.164062 16.949219 18.058594 C 16.734375 17.953125 16.046875 17.730469 15.234375 17.007812 C 14.597656 16.449219 14.171875 15.757812 14.046875 15.542969 C 13.921875 15.332031 14.03125 15.21875 14.140625 15.113281 C 14.234375 15.015625 14.351562 14.867188 14.460938 14.742188 C 14.566406 14.617188 14.601562 14.53125 14.671875 14.390625 C 14.746094 14.246094 14.707031 14.125 14.65625 14.019531 C 14.601562 13.914062 14.175781 12.871094 13.996094 12.445312 C 13.820312 12.023438 13.640625 12.09375 13.519531 12.09375 C 13.394531 12.09375 13.25 12.078125 13.109375 12.078125 C 12.964844 12.078125 12.734375 12.128906 12.539062 12.339844 C 12.34375 12.554688 11.792969 13.066406 11.792969 14.105469 C 11.792969 15.148438 12.558594 16.152344 12.664062 16.292969 C 12.769531 16.4375 14.140625 18.640625 16.308594 19.488281 C 18.476562 20.335938 18.476562 20.054688 18.867188 20.019531 C 19.257812 19.984375 20.128906 19.507812 20.308594 19.011719 C 20.484375 18.519531 20.484375 18.09375 20.429688 18.007812 Z M 20.429688 18.007812 "/>
  </symbol>

  <symbol id="youtube" xmlns="http://www.w3.org/2000/svg" width="32px" height="32px" viewBox="0 0 32 32" version="1.1">
    <path style=" stroke:none;fill-rule:evenodd;fill:currentColor;fill-opacity:1;" d="M 16 0 C 24.832031 0 32 7.167969 32 16 C 32 24.832031 24.832031 32 16 32 C 7.167969 32 0 24.832031 0 16 C 0 7.167969 7.167969 0 16 0 Z M 25.582031 11.1875 C 25.351562 10.324219 24.675781 9.648438 23.8125 9.417969 C 22.253906 9 16 9 16 9 C 16 9 9.746094 9 8.1875 9.417969 C 7.324219 9.648438 6.648438 10.324219 6.417969 11.1875 C 6 12.746094 6 16 6 16 C 6 16 6 19.253906 6.417969 20.8125 C 6.648438 21.675781 7.324219 22.351562 8.1875 22.582031 C 9.746094 23 16 23 16 23 C 16 23 22.253906 23 23.8125 22.582031 C 24.675781 22.351562 25.351562 21.675781 25.582031 20.8125 C 26 19.253906 26 16 26 16 C 26 16 26 12.746094 25.582031 11.1875 Z M 14 19 L 14 13 L 19.195312 16 Z M 14 19 "/>
 </symbol>
</svg>